<mxfile host="app.diagrams.net" agent="Mozilla/5.0 (Windows NT 10.0; Win64; x64) AppleWebKit/537.36 (KHTML, like Gecko) Chrome/140.0.0.0 Safari/537.36" version="28.2.1">
  <diagram id="sP5Oka8LF7QZKssFZacC" name="ページ1">
    <mxGraphModel dx="746" dy="498" grid="1" gridSize="10" guides="1" tooltips="1" connect="1" arrows="1" fold="1" page="1" pageScale="1" pageWidth="827" pageHeight="1169" math="0" shadow="0">
      <root>
        <mxCell id="0" />
        <mxCell id="1" parent="0" />
        <mxCell id="dNgIPet63nDF74HMDf---2" value="学生" style="shape=umlActor;verticalLabelPosition=bottom;verticalAlign=top;html=1;" vertex="1" parent="1">
          <mxGeometry x="140" y="170" width="40" height="70" as="geometry" />
        </mxCell>
        <mxCell id="dNgIPet63nDF74HMDf---3" value="" style="endArrow=none;dashed=1;html=1;dashPattern=1 3;strokeWidth=2;rounded=0;" edge="1" parent="1" source="2">
          <mxGeometry width="50" height="50" relative="1" as="geometry">
            <mxPoint x="159.5" y="632.6666870117188" as="sourcePoint" />
            <mxPoint x="159.5" y="260" as="targetPoint" />
          </mxGeometry>
        </mxCell>
        <mxCell id="dNgIPet63nDF74HMDf---4" value="" style="endArrow=none;dashed=1;html=1;dashPattern=1 3;strokeWidth=2;rounded=0;" edge="1" parent="1" source="dNgIPet63nDF74HMDf---14" target="2">
          <mxGeometry width="50" height="50" relative="1" as="geometry">
            <mxPoint x="159.5" y="632.6666870117188" as="sourcePoint" />
            <mxPoint x="159.5" y="260" as="targetPoint" />
          </mxGeometry>
        </mxCell>
        <mxCell id="2" value="" style="rounded=0;whiteSpace=wrap;html=1;" parent="1" vertex="1">
          <mxGeometry x="150" y="310" width="20" height="100" as="geometry" />
        </mxCell>
        <mxCell id="dNgIPet63nDF74HMDf---5" value="" style="shape=umlBoundary;whiteSpace=wrap;html=1;fillColor=#d5e8d4;strokeColor=#82b366;" vertex="1" parent="1">
          <mxGeometry x="240" y="165" width="100" height="80" as="geometry" />
        </mxCell>
        <mxCell id="dNgIPet63nDF74HMDf---7" value="" style="shape=umlBoundary;whiteSpace=wrap;html=1;fillColor=#ffe6cc;strokeColor=#d79b00;" vertex="1" parent="1">
          <mxGeometry x="420" y="165" width="100" height="80" as="geometry" />
        </mxCell>
        <mxCell id="dNgIPet63nDF74HMDf---8" value="" style="ellipse;shape=umlControl;whiteSpace=wrap;html=1;fillColor=#f8cecc;strokeColor=#b85450;" vertex="1" parent="1">
          <mxGeometry x="600" y="160" width="70" height="80" as="geometry" />
        </mxCell>
        <mxCell id="dNgIPet63nDF74HMDf---9" value="" style="ellipse;shape=umlEntity;whiteSpace=wrap;html=1;fillColor=#dae8fc;strokeColor=#6c8ebf;" vertex="1" parent="1">
          <mxGeometry x="747" y="165" width="80" height="80" as="geometry" />
        </mxCell>
        <mxCell id="dNgIPet63nDF74HMDf---10" value="" style="endArrow=none;dashed=1;html=1;dashPattern=1 3;strokeWidth=2;rounded=0;entryX=0.683;entryY=0.967;entryDx=0;entryDy=0;entryPerimeter=0;fillColor=#d5e8d4;strokeColor=#82b366;" edge="1" parent="1" source="dNgIPet63nDF74HMDf---17" target="dNgIPet63nDF74HMDf---5">
          <mxGeometry width="50" height="50" relative="1" as="geometry">
            <mxPoint x="310" y="640" as="sourcePoint" />
            <mxPoint x="260.5" y="370" as="targetPoint" />
          </mxGeometry>
        </mxCell>
        <mxCell id="dNgIPet63nDF74HMDf---11" value="" style="endArrow=none;dashed=1;html=1;dashPattern=1 3;strokeWidth=2;rounded=0;entryX=0.683;entryY=0.967;entryDx=0;entryDy=0;entryPerimeter=0;fillColor=#ffe6cc;strokeColor=#d79b00;" edge="1" parent="1" source="dNgIPet63nDF74HMDf---26">
          <mxGeometry width="50" height="50" relative="1" as="geometry">
            <mxPoint x="482" y="643" as="sourcePoint" />
            <mxPoint x="480" y="245" as="targetPoint" />
          </mxGeometry>
        </mxCell>
        <mxCell id="dNgIPet63nDF74HMDf---12" value="" style="endArrow=none;dashed=1;html=1;dashPattern=1 3;strokeWidth=2;rounded=0;entryX=0.683;entryY=0.967;entryDx=0;entryDy=0;entryPerimeter=0;fillColor=#f8cecc;strokeColor=#b85450;" edge="1" parent="1" source="dNgIPet63nDF74HMDf---35">
          <mxGeometry width="50" height="50" relative="1" as="geometry">
            <mxPoint x="642" y="643" as="sourcePoint" />
            <mxPoint x="640" y="245" as="targetPoint" />
          </mxGeometry>
        </mxCell>
        <mxCell id="dNgIPet63nDF74HMDf---13" value="" style="endArrow=none;dashed=1;html=1;dashPattern=1 3;strokeWidth=2;rounded=0;entryX=0.683;entryY=0.967;entryDx=0;entryDy=0;entryPerimeter=0;fillColor=#dae8fc;strokeColor=#6c8ebf;" edge="1" parent="1" source="dNgIPet63nDF74HMDf---37">
          <mxGeometry width="50" height="50" relative="1" as="geometry">
            <mxPoint x="788" y="643" as="sourcePoint" />
            <mxPoint x="786" y="245" as="targetPoint" />
          </mxGeometry>
        </mxCell>
        <mxCell id="dNgIPet63nDF74HMDf---15" value="" style="endArrow=none;dashed=1;html=1;dashPattern=1 3;strokeWidth=2;rounded=0;" edge="1" parent="1" target="dNgIPet63nDF74HMDf---14">
          <mxGeometry width="50" height="50" relative="1" as="geometry">
            <mxPoint x="159.5" y="632.6666870117188" as="sourcePoint" />
            <mxPoint x="160" y="490" as="targetPoint" />
          </mxGeometry>
        </mxCell>
        <mxCell id="dNgIPet63nDF74HMDf---14" value="" style="rounded=0;whiteSpace=wrap;html=1;" vertex="1" parent="1">
          <mxGeometry x="150" y="440" width="20" height="50" as="geometry" />
        </mxCell>
        <mxCell id="dNgIPet63nDF74HMDf---18" value="" style="endArrow=none;dashed=1;html=1;dashPattern=1 3;strokeWidth=2;rounded=0;entryX=0.683;entryY=0.967;entryDx=0;entryDy=0;entryPerimeter=0;fillColor=#d5e8d4;strokeColor=#82b366;" edge="1" parent="1" target="dNgIPet63nDF74HMDf---17">
          <mxGeometry width="50" height="50" relative="1" as="geometry">
            <mxPoint x="314" y="630" as="sourcePoint" />
            <mxPoint x="308" y="242" as="targetPoint" />
          </mxGeometry>
        </mxCell>
        <mxCell id="dNgIPet63nDF74HMDf---17" value="" style="rounded=0;whiteSpace=wrap;html=1;" vertex="1" parent="1">
          <mxGeometry x="300" y="310" width="20" height="90" as="geometry" />
        </mxCell>
        <mxCell id="dNgIPet63nDF74HMDf---19" value="" style="endArrow=classic;html=1;rounded=0;exitX=1.15;exitY=0.065;exitDx=0;exitDy=0;exitPerimeter=0;entryX=-0.05;entryY=0.152;entryDx=0;entryDy=0;entryPerimeter=0;" edge="1" parent="1" source="2" target="dNgIPet63nDF74HMDf---17">
          <mxGeometry width="50" height="50" relative="1" as="geometry">
            <mxPoint x="380" y="370" as="sourcePoint" />
            <mxPoint x="430" y="320" as="targetPoint" />
          </mxGeometry>
        </mxCell>
        <mxCell id="dNgIPet63nDF74HMDf---21" value="メニュー画面" style="rounded=0;whiteSpace=wrap;html=1;strokeColor=none;" vertex="1" parent="1">
          <mxGeometry x="240" y="250" width="110" height="20" as="geometry" />
        </mxCell>
        <mxCell id="dNgIPet63nDF74HMDf---22" value="学生登録画面" style="rounded=0;whiteSpace=wrap;html=1;strokeColor=none;" vertex="1" parent="1">
          <mxGeometry x="420" y="250" width="110" height="20" as="geometry" />
        </mxCell>
        <mxCell id="dNgIPet63nDF74HMDf---23" value="学生情報登録" style="rounded=0;whiteSpace=wrap;html=1;strokeColor=none;" vertex="1" parent="1">
          <mxGeometry x="580" y="250" width="110" height="20" as="geometry" />
        </mxCell>
        <mxCell id="dNgIPet63nDF74HMDf---24" value="学生オブジェクト" style="rounded=0;whiteSpace=wrap;html=1;strokeColor=none;" vertex="1" parent="1">
          <mxGeometry x="732" y="250" width="110" height="20" as="geometry" />
        </mxCell>
        <mxCell id="dNgIPet63nDF74HMDf---25" value="学生情報を登録" style="rounded=0;whiteSpace=wrap;html=1;strokeColor=none;" vertex="1" parent="1">
          <mxGeometry x="180" y="290" width="100" height="20" as="geometry" />
        </mxCell>
        <mxCell id="dNgIPet63nDF74HMDf---27" value="" style="endArrow=none;dashed=1;html=1;dashPattern=1 3;strokeWidth=2;rounded=0;entryX=0.683;entryY=0.967;entryDx=0;entryDy=0;entryPerimeter=0;fillColor=#ffe6cc;strokeColor=#d79b00;" edge="1" parent="1" source="dNgIPet63nDF74HMDf---31" target="dNgIPet63nDF74HMDf---26">
          <mxGeometry width="50" height="50" relative="1" as="geometry">
            <mxPoint x="482" y="643" as="sourcePoint" />
            <mxPoint x="480" y="245" as="targetPoint" />
          </mxGeometry>
        </mxCell>
        <mxCell id="dNgIPet63nDF74HMDf---26" value="" style="rounded=0;whiteSpace=wrap;html=1;" vertex="1" parent="1">
          <mxGeometry x="465" y="320" width="20" height="50" as="geometry" />
        </mxCell>
        <mxCell id="dNgIPet63nDF74HMDf---28" value="" style="endArrow=classic;html=1;rounded=0;exitX=1.017;exitY=0.152;exitDx=0;exitDy=0;exitPerimeter=0;entryX=-0.05;entryY=0.098;entryDx=0;entryDy=0;entryPerimeter=0;" edge="1" parent="1" source="dNgIPet63nDF74HMDf---17" target="dNgIPet63nDF74HMDf---26">
          <mxGeometry width="50" height="50" relative="1" as="geometry">
            <mxPoint x="480" y="370" as="sourcePoint" />
            <mxPoint x="530" y="320" as="targetPoint" />
          </mxGeometry>
        </mxCell>
        <mxCell id="dNgIPet63nDF74HMDf---30" value="表示" style="rounded=0;whiteSpace=wrap;html=1;strokeColor=none;" vertex="1" parent="1">
          <mxGeometry x="340" y="290" width="110" height="20" as="geometry" />
        </mxCell>
        <mxCell id="dNgIPet63nDF74HMDf---32" value="" style="endArrow=none;dashed=1;html=1;dashPattern=1 3;strokeWidth=2;rounded=0;entryX=0.683;entryY=0.967;entryDx=0;entryDy=0;entryPerimeter=0;fillColor=#ffe6cc;strokeColor=#d79b00;" edge="1" parent="1" target="dNgIPet63nDF74HMDf---31">
          <mxGeometry width="50" height="50" relative="1" as="geometry">
            <mxPoint x="482" y="643" as="sourcePoint" />
            <mxPoint x="479" y="368" as="targetPoint" />
          </mxGeometry>
        </mxCell>
        <mxCell id="dNgIPet63nDF74HMDf---31" value="" style="rounded=0;whiteSpace=wrap;html=1;" vertex="1" parent="1">
          <mxGeometry x="470" y="440" width="20" height="100" as="geometry" />
        </mxCell>
        <mxCell id="dNgIPet63nDF74HMDf---33" value="" style="endArrow=classic;html=1;rounded=0;exitX=1;exitY=0;exitDx=0;exitDy=0;entryX=0;entryY=0;entryDx=0;entryDy=0;" edge="1" parent="1" source="dNgIPet63nDF74HMDf---14" target="dNgIPet63nDF74HMDf---31">
          <mxGeometry width="50" height="50" relative="1" as="geometry">
            <mxPoint x="480" y="470" as="sourcePoint" />
            <mxPoint x="530" y="420" as="targetPoint" />
          </mxGeometry>
        </mxCell>
        <mxCell id="dNgIPet63nDF74HMDf---34" value="学生データ入力" style="rounded=0;whiteSpace=wrap;html=1;strokeColor=none;" vertex="1" parent="1">
          <mxGeometry x="190" y="410" width="110" height="20" as="geometry" />
        </mxCell>
        <mxCell id="dNgIPet63nDF74HMDf---36" value="" style="endArrow=none;dashed=1;html=1;dashPattern=1 3;strokeWidth=2;rounded=0;entryX=0.683;entryY=0.967;entryDx=0;entryDy=0;entryPerimeter=0;fillColor=#f8cecc;strokeColor=#b85450;" edge="1" parent="1" target="dNgIPet63nDF74HMDf---35">
          <mxGeometry width="50" height="50" relative="1" as="geometry">
            <mxPoint x="642" y="643" as="sourcePoint" />
            <mxPoint x="640" y="245" as="targetPoint" />
          </mxGeometry>
        </mxCell>
        <mxCell id="dNgIPet63nDF74HMDf---35" value="" style="rounded=0;whiteSpace=wrap;html=1;" vertex="1" parent="1">
          <mxGeometry x="630" y="440" width="20" height="50" as="geometry" />
        </mxCell>
        <mxCell id="dNgIPet63nDF74HMDf---38" value="" style="endArrow=none;dashed=1;html=1;dashPattern=1 3;strokeWidth=2;rounded=0;entryX=0.683;entryY=0.967;entryDx=0;entryDy=0;entryPerimeter=0;fillColor=#dae8fc;strokeColor=#6c8ebf;" edge="1" parent="1" target="dNgIPet63nDF74HMDf---37">
          <mxGeometry width="50" height="50" relative="1" as="geometry">
            <mxPoint x="788" y="643" as="sourcePoint" />
            <mxPoint x="786" y="245" as="targetPoint" />
          </mxGeometry>
        </mxCell>
        <mxCell id="dNgIPet63nDF74HMDf---37" value="" style="rounded=0;whiteSpace=wrap;html=1;" vertex="1" parent="1">
          <mxGeometry x="777" y="440" width="20" height="90" as="geometry" />
        </mxCell>
        <mxCell id="dNgIPet63nDF74HMDf---39" value="" style="endArrow=classic;html=1;rounded=0;entryX=0;entryY=0;entryDx=0;entryDy=0;exitX=1;exitY=0;exitDx=0;exitDy=0;" edge="1" parent="1" source="dNgIPet63nDF74HMDf---31" target="dNgIPet63nDF74HMDf---35">
          <mxGeometry width="50" height="50" relative="1" as="geometry">
            <mxPoint x="480" y="470" as="sourcePoint" />
            <mxPoint x="530" y="420" as="targetPoint" />
          </mxGeometry>
        </mxCell>
        <mxCell id="dNgIPet63nDF74HMDf---40" value="" style="endArrow=classic;html=1;rounded=0;entryX=0;entryY=0;entryDx=0;entryDy=0;exitX=0.75;exitY=0;exitDx=0;exitDy=0;" edge="1" parent="1" source="dNgIPet63nDF74HMDf---35" target="dNgIPet63nDF74HMDf---37">
          <mxGeometry width="50" height="50" relative="1" as="geometry">
            <mxPoint x="480" y="470" as="sourcePoint" />
            <mxPoint x="530" y="420" as="targetPoint" />
          </mxGeometry>
        </mxCell>
        <mxCell id="dNgIPet63nDF74HMDf---41" value="" style="endArrow=classic;html=1;rounded=0;strokeWidth=9;" edge="1" parent="1">
          <mxGeometry width="50" height="50" relative="1" as="geometry">
            <mxPoint x="90" y="160" as="sourcePoint" />
            <mxPoint x="90" y="720" as="targetPoint" />
          </mxGeometry>
        </mxCell>
        <mxCell id="dNgIPet63nDF74HMDf---42" value="時間の流れ" style="rounded=0;whiteSpace=wrap;html=1;strokeColor=none;gradientColor=none;" vertex="1" parent="1">
          <mxGeometry x="40" y="730" width="110" height="20" as="geometry" />
        </mxCell>
        <mxCell id="dNgIPet63nDF74HMDf---43" value="学生データ登録" style="rounded=0;whiteSpace=wrap;html=1;strokeColor=none;" vertex="1" parent="1">
          <mxGeometry x="660" y="410" width="110" height="20" as="geometry" />
        </mxCell>
        <mxCell id="dNgIPet63nDF74HMDf---44" value="起動" style="rounded=0;whiteSpace=wrap;html=1;strokeColor=none;" vertex="1" parent="1">
          <mxGeometry x="500" y="410" width="110" height="20" as="geometry" />
        </mxCell>
      </root>
    </mxGraphModel>
  </diagram>
</mxfile>
